<svg width="17" height="122" viewBox="0 0 17 122" fill="none" xmlns="http://www.w3.org/2000/svg">
<path d="M5.13008 121.493C5.40242 121.974 6.01269 122.142 6.49316 121.87L14.3229 117.432C14.8034 117.16 14.9721 116.549 14.6998 116.069C14.4274 115.589 13.8172 115.42 13.3367 115.692L6.37692 119.637L2.43211 112.677C2.15977 112.197 1.54951 112.028 1.06903 112.3C0.588562 112.573 0.419831 113.183 0.692164 113.663L5.13008 121.493ZM16.0001 61.5L15.0001 61.4973L16.0001 61.5ZM6.00006 1C5.03594 1.26547 5.03595 1.26553 5.03601 1.26573C5.03608 1.26598 5.03617 1.26632 5.03631 1.26682C5.03658 1.26782 5.03701 1.26938 5.03759 1.2715C5.03875 1.27572 5.04052 1.28215 5.04288 1.29076C5.04759 1.30799 5.05469 1.33395 5.06409 1.36845C5.08289 1.43745 5.1109 1.54063 5.1475 1.67648C5.2207 1.94819 5.32826 2.35059 5.46527 2.87168C5.73928 3.91388 6.13101 5.43072 6.60105 7.32624C7.54124 11.1177 8.79422 16.4221 10.045 22.4723C12.5507 34.592 15.0321 49.6326 15.0001 61.4973L17.0001 61.5027C17.0327 49.4202 14.5142 34.2108 12.0036 22.0673C10.7463 15.9859 9.48719 10.6554 8.54226 6.84486C8.06975 4.93938 7.67568 3.41345 7.39953 2.36312C7.26145 1.83795 7.15285 1.43165 7.07864 1.15622C7.04154 1.01851 7.01304 0.913509 6.99376 0.842728C6.98412 0.807338 6.97678 0.780501 6.97182 0.762406C6.96935 0.753358 6.96746 0.746496 6.96618 0.741843C6.96555 0.739516 6.96506 0.737741 6.96472 0.736522C6.96455 0.735912 6.96442 0.735415 6.96433 0.73511C6.96424 0.734751 6.96418 0.734532 6.00006 1ZM15.0001 61.4973C14.9685 73.1712 12.4869 87.9632 9.9973 99.8813C8.75449 105.831 7.51353 111.046 6.58335 114.774C6.11831 116.638 5.73108 118.13 5.46031 119.154C5.32493 119.667 5.21868 120.062 5.14638 120.329C5.11024 120.463 5.08258 120.564 5.06402 120.632C5.05474 120.666 5.04773 120.692 5.04307 120.709C5.04074 120.717 5.039 120.723 5.03785 120.728C5.03728 120.73 5.03686 120.731 5.03658 120.732C5.03645 120.733 5.03636 120.733 5.03629 120.733C5.03623 120.733 5.03622 120.734 6.00006 121C6.96389 121.266 6.96395 121.266 6.96405 121.266C6.96413 121.266 6.96427 121.265 6.96443 121.265C6.96477 121.263 6.96525 121.262 6.96588 121.259C6.96714 121.255 6.969 121.248 6.97145 121.239C6.97634 121.221 6.98359 121.195 6.99311 121.16C7.01215 121.091 7.04029 120.987 7.07694 120.852C7.15022 120.581 7.25751 120.182 7.39395 119.665C7.66682 118.633 8.05637 117.132 8.52385 115.259C9.45872 111.512 10.7058 106.27 11.955 100.29C14.4495 88.3488 16.9679 73.3908 17.0001 61.5027L15.0001 61.4973Z" fill="white"/>
</svg>
